# xmcd
#
# Track frame offsets:
#	150
#	31425
#	52027
#	73505
#	92597
#	108900
#	131375
#	151225
#	168202
#	194365
#	206667
#
# Disc length: 3004 seconds
#
# Revision: 0
# Processed by: cddbd v1.4PL0 Copyright (c) Steve Scherf et al.
# Submitted via: dBpowerAMP V4.0
#
DISCID=8e0bba0b
DTITLE=Bo Johnson - The Party's Over
DYEAR=1995
DGENRE=Blues
TTITLE0=Funkin' with One Man/One Man Band
TTITLE1=Just Close Your Eyes
TTITLE2=Just One More Time
TTITLE3=The Streets
TTITLE4=My-Key
TTITLE5=Oh-My
TTITLE6=Jam in "D"
TTITLE7=Underloved
TTITLE8=She's so Hott
TTITLE9=Alone
TTITLE10=The Party's Over
EXTD=
EXTT0=
EXTT1=
EXTT2=
EXTT3=
EXTT4=
EXTT5=
EXTT6=
EXTT7=
EXTT8=
EXTT9=
EXTT10=
PLAYORDER=
